<?xml version="1.0" encoding="UTF-8"?>
<svg width="108px" height="150px" viewBox="0 0 108 150" version="1.1" xmlns="http://www.w3.org/2000/svg" xmlns:xlink="http://www.w3.org/1999/xlink">
    <!-- Generator: Sketch 48.2 (47327) - http://www.bohemiancoding.com/sketch -->
    <title>Group 2</title>
    <desc>Created with Sketch.</desc>
    <defs></defs>
    <g id="Page-1" stroke="none" stroke-width="1" fill="none" fill-rule="evenodd">
        <g id="Group" transform="translate(-64.000000, -49.000000)">
            <g id="Group-2" transform="translate(64.000000, 49.000000)">
                <text id="DataBase" font-family="Roboto-Regular, Roboto" font-size="25" font-weight="normal" fill="#FFFFFF">
                    <tspan x="1" y="149">DataBase</tspan>
                </text>
                <g id="database" fill="#FFFFFF" fill-rule="nonzero">
                    <path d="M54,0 C24.165,0 0,12.1322222 0,27.1111111 C0,42.09 24.165,54.2222222 54,54.2222222 C83.835,54.2222222 108,42.09 108,27.1111111 C108,12.1322222 83.835,0 54,0 Z M0,40.6666667 L0,61 C0,75.9788889 24.165,88.1111111 54,88.1111111 C83.835,88.1111111 108,75.9788889 108,61 L108,40.6666667 C108,55.6455556 83.835,67.7777778 54,67.7777778 C24.165,67.7777778 0,55.6455556 0,40.6666667 Z M0,74.5555556 L0,94.8888889 C0,109.867778 24.165,122 54,122 C83.835,122 108,109.867778 108,94.8888889 L108,74.5555556 C108,89.5344444 83.835,101.666667 54,101.666667 C24.165,101.666667 0,89.5344444 0,74.5555556 Z" id="Shape"></path>
                </g>
                <polygon id="Shape" fill="#0073BA" fill-rule="nonzero" points="75 25.0769231 63.5714286 25.0769231 63.5714286 8 46.4285714 8 46.4285714 25.0769231 35 25.0769231 55 45"></polygon>
            </g>
        </g>
    </g>
</svg>