<?xml version="1.0" encoding="UTF-8"?>
<svg width="984px" height="770px" viewBox="0 0 984 770" version="1.1" xmlns="http://www.w3.org/2000/svg" xmlns:xlink="http://www.w3.org/1999/xlink">
    <!-- Generator: Sketch 48.2 (47327) - http://www.bohemiancoding.com/sketch -->
    <title>Group 4</title>
    <desc>Created with Sketch.</desc>
    <defs></defs>
    <g id="Artboard" stroke="none" stroke-width="1" fill="none" fill-rule="evenodd" transform="translate(-19.000000, -149.000000)">
        <g id="Group-4" transform="translate(19.000000, 58.000000)">
            <g id="wrench" transform="translate(745.500000, 472.500000) scale(-1, 1) translate(-745.500000, -472.500000) translate(574.000000, 301.000000)" fill="#034A74" fill-rule="nonzero" stroke="#074368" stroke-width="7">
                <path d="M338.50806,280.352052 L196.842749,137.82797 C210.853604,101.8054 203.069796,59.5180347 173.491325,29.7602593 C142.356091,-1.56371473 95.6532415,-7.82850954 58.2909617,9.39967619 L125.231713,76.7462204 L78.5288633,123.732182 L10.0313502,56.3856373 C-8.64978969,93.9744062 -0.865981391,140.960367 30.2692518,172.284341 C59.8477233,202.042117 101.880288,209.87311 137.685806,195.777322 L279.351117,338.301404 C285.578164,344.566199 294.918734,344.566199 301.145781,338.301404 L336.951299,302.278834 C344.735107,296.014039 344.735107,285.050648 338.50806,280.352052 Z" id="Shape"></path>
            </g>
            <g id="druplicon-vector" transform="translate(0.000000, 91.000000)">
                <path d="M498.017621,143.120103 C459.152717,118.59088 422.631424,108.996789 385.914831,84.566474 C363.259912,68.9389852 331.718796,31.9473346 305.353157,0 C300.27533,51.2344252 284.846549,72.0051381 267.269457,86.8413616 C229.96696,116.513809 206.530837,125.415543 174.306167,143.219011 C147.159325,157.263969 0,246.28131 0,437.668593 C0,629.055877 158.975037,770 335.429515,770 C511.883994,770 665,640.232498 665,443.603083 C665,246.973667 521.453744,157.956326 498.017621,143.120103 Z" id="Shape" fill="#00598E" fill-rule="nonzero"></path>
                <path d="M447.689136,616.040755 C459.029982,616.040755 471.126885,616.798699 479.63252,622.483276 C488.138154,628.167854 493.052521,640.958154 495.887733,648.063876 C498.722944,655.169599 495.887733,659.433032 490.21731,662.275321 C485.302943,665.11761 484.546887,663.696465 479.63252,654.506398 C474.718153,645.316331 470.370829,636.03152 445.609981,636.03152 C420.849133,636.03152 413.005048,644.558387 401.002652,654.506398 C389.000257,664.454409 384.74744,667.959899 380.400115,662.275321 C376.052791,656.590743 377.564904,650.906165 385.314482,643.800443 C393.06406,636.694721 405.917019,625.325565 417.919415,620.304188 C429.92181,615.282811 436.34829,616.040755 447.689136,616.040755 Z" id="Shape" fill="#FFFFFF" fill-rule="nonzero"></path>
                <path d="M308.647509,670.192805 C324.337765,681.716431 347.873151,691.127392 398.081973,691.127392 C448.290794,691.127392 483.541571,678.067283 499.231828,667.311899 C506.344745,662.318327 509.482796,666.543657 510.215008,669.424563 C510.94722,672.30547 512.516246,676.626829 507.076957,681.716431 C503.102092,685.365579 467.119103,708.41283 424.650807,711.965948 C382.182512,715.519066 325.069977,717.727761 290.551412,688.918697 C285.112123,683.925126 286.576547,676.626829 290.551412,673.745923 C294.526277,670.865016 297.664329,668.752352 302.266804,668.752352 C306.869279,668.752352 306.241669,668.752352 308.647509,670.192805 Z" id="Shape" fill="#FFFFFF" fill-rule="nonzero"></path>
                <path d="M135.224882,629.972557 C189.89026,629.183736 199.960198,619.619275 248.199997,597.433671 C508.579824,477.631408 556.819622,368.182427 566.122327,343.038743 C575.425031,317.895058 589.139328,277.172149 574.753702,232.110722 C571.972481,223.433685 569.958494,216.432895 568.519931,210.812541 C533.898525,171.075659 499.564831,149.284466 489.207181,142.678086 C451.804554,118.22462 415.073256,108.660159 379.109191,84.3052961 C356.859424,69.5148932 325.882376,31.8486674 299.98825,0 C295.001233,51.0761911 280.615607,72.4729738 262.585623,86.5731578 C225.950229,116.153963 202.933228,125.028205 171.284851,142.776689 C144.623491,157.468489 0,245.422084 0,436.21828 C0,497.15474 15.9200925,552.96386 43.2527815,600.68756 L50.3496902,600.391752 C65.4066452,614.393333 89.1908799,630.761379 135.224882,629.972557 Z" id="Shape" fill="#0073BA" fill-rule="nonzero"></path>
                <path d="M498.017621,143.138489 C459.933921,118.606115 422.631424,109.010791 385.914831,84.5773381 C363.259912,69.7392086 331.718796,31.9514388 305.353157,0 C300.27533,51.2410072 285.627753,72.7068345 267.269457,86.852518 C229.96696,116.528777 206.530837,125.431655 174.306167,143.23741 C147.256975,157.976619 0,246.214029 0,437.625899 C0,498.758993 16.2099853,554.748201 44.0403818,602.625899 C103.314244,704.71223 215.319383,770 335.429515,770 C511.981645,770 665,640.215827 665,443.561151 C665,335.638489 621.740822,260.06295 578.774596,211.492806 C543.522761,171.528777 508.563877,149.766187 498.017621,143.138489 Z M587.07489,229.892086 C635.118943,290.827338 659.531571,362.643885 659.531571,443.561151 C659.531571,490.44964 650.743025,534.766187 633.361233,575.323741 C616.858297,613.705036 593.129222,647.733813 562.759912,676.519784 C502.704846,733.30036 422.045521,764.559353 335.527166,764.559353 C292.756241,764.559353 250.76652,756.25 210.729809,739.928058 C171.376652,723.902878 136.027166,700.953237 105.462555,671.672662 C40.9155653,609.946043 5.46842878,526.852518 5.46842878,437.625899 C5.46842878,358.192446 30.9552129,287.56295 81.1475771,227.715827 C119.524229,182.014388 160.928047,156.690647 176.845081,147.985612 C184.657122,143.732014 191.88326,139.874101 198.914097,136.214029 C220.983113,124.739209 241.880323,113.857914 270.589574,91.1061151 C285.920705,79.3345324 302.228341,60.6384892 309.161527,13.2553957 C333.378855,42.4370504 361.404552,75.1798561 382.887665,89.2266187 C401.929515,101.98741 421.459618,110.890288 440.306167,119.496403 C458.176211,127.607914 476.632159,136.115108 494.892805,147.886691 C494.892805,147.886691 495.576358,148.282374 495.576358,148.282374 C549.18649,182.014388 577.700441,218.120504 587.07489,229.892086 Z" id="Shape" fill="#004975" fill-rule="nonzero"></path>
                <path d="M299.40472,14 C309.350687,45.7774635 307.929834,61.975716 307.929834,68.888346 C307.929834,75.8009761 304.330342,94.4753945 292.963522,103.761017 C288.0379,107.681613 286.522324,110.776821 286.522324,111.499036 C286.522324,114.594243 292.963522,116.864062 292.963522,123.879866 C292.963522,132.340099 289.364029,149.466914 251.758801,190.426827 C214.153572,231.386739 160.066455,267.807014 118.19867,290.298855 C76.3308839,312.790696 56.4389495,311.139918 50.7555396,300.306692 C45.0721298,289.473466 52.8394566,265.434021 79.1725888,233.759731 C105.505721,202.085441 188.578228,156.379544 188.578228,156.379544 L292.300457,77.4517534 L297.983867,47.3250672" id="Shape" fill="#93C5E4" fill-rule="nonzero"></path>
                <path d="M322.712814,14 C315.780797,63.9783336 300.489583,79.1232832 279.897415,94.9749971 C245.441213,120.721411 211.800542,136.573125 204.256877,140.409846 C184.378299,150.304546 112.509594,189.681415 74.9951489,246.424493 C63.5777092,263.790702 74.9951489,270.656412 77.2378602,272.170907 C79.4805716,273.685402 105.577577,276.714392 161.339537,243.395503 C217.101496,210.076614 241.66938,190.489146 273.067339,157.977987 C289.887674,140.611779 292.232327,130.717078 292.232327,126.173593 C292.232327,120.923344 288.358553,118.601118 282.242068,117.086624 C279.183825,116.278893 278.368293,114.865364 282.242068,112.543139 C286.115842,110.220913 302.018704,102.648438 305.892478,99.6194483 C309.766252,96.5904584 328.115709,84.4744987 328.829299,64.7860643 C329.542889,45.0976298 328.115709,31.4671752 322.712814,14 Z" id="Shape" fill="#FFFFFF" fill-rule="nonzero"></path>
                <path d="M133.038984,561.890178 C133.818378,503.44932 187.109434,448.80462 254.332155,448.005429 C339.870632,447.206237 399.007142,534.917474 442.166078,534.118283 C478.700165,533.319092 548.845613,459.993297 583.236368,459.993297 C619.770455,459.993297 630,498.953869 630,522.130415 C630,545.30696 622.693182,587.2645 605.15682,613.537911 C587.620458,639.811323 576.708944,649.501516 556.249855,648.003033 C529.945312,645.805257 477.336226,561.890178 443.724865,560.291796 C401.345324,558.793312 309.279423,651 236.990641,651 C193.149736,651 179.997465,644.206875 165.38383,634.516681 C143.171104,618.832553 132.25959,594.856816 133.038984,561.890178 Z" id="Shape" fill="#FFFFFF" fill-rule="nonzero"></path>
                <path d="M585.856738,244.888417 C600.387325,289.179596 586.631703,329.022317 577.138387,353.682253 C567.64507,378.342189 519.01604,485.685441 256.012423,603.182784 C207.383394,624.941552 197.115112,634.321998 141.898883,635.095643 C95.4010064,635.869288 71.3771033,619.816153 56.1684227,606.083953 L49,606.37407 C107.80044,706.174283 218.910992,770 338.061802,770 C513.203806,770 665,643.12221 665,450.871413 C665,345.365569 622.086334,271.482465 579.46328,224 C581.01321,229.512221 583.144362,236.378321 585.856738,244.888417 Z" id="Shape"></path>
            </g>
            <g id="wrench" transform="translate(783.885795, 304.925196) scale(-1, 1) rotate(-105.000000) translate(-783.885795, -304.925196) translate(538.885795, 59.925196)" fill="#E0E0E0" fill-rule="nonzero" stroke="#A6A6A6" stroke-width="4.9">
                <path d="M389.357653,336.06424 C385.206289,332.931843 337.984518,285.423815 247.692342,193.540158 C261.703197,157.517588 253.919389,115.230223 224.340917,85.4724474 C193.205684,54.1484734 146.502834,47.8836786 109.140554,65.1118643 L176.081306,132.458409 L129.378456,179.44437 L60.8809428,112.097825 C40.9497122,144.95779 49.9836112,196.672555 81.1188444,227.996529 C110.697316,257.754305 159.353936,258.22854 195.159454,244.132752 L329.101655,373.042372 C335.328702,379.307167 402.611434,448.330587 413.763106,437.346953 L431.239163,422.403434 C444.637974,407.009543 395.5847,340.762836 389.357653,336.06424 Z" id="Shape" transform="translate(241.921697, 247.120533) rotate(198.000000) translate(-241.921697, -247.120533) "></path>
            </g>
            <g id="wrench" transform="translate(875.000000, 420.000000) scale(-1, 1) translate(-875.000000, -420.000000) translate(833.000000, 357.000000)" fill="#044972" fill-rule="nonzero" stroke="#094163" stroke-width="7">
                <path d="M78.5288633,67.7321815 L10.0313502,0.385637292 C-8.64978969,37.9744062 -0.865981391,84.9603673 30.2692518,116.284341 C49.9882328,136.122858 66.07477,119.938805 78.5288633,67.7321815 Z" id="Shape"></path>
            </g>
        </g>
    </g>
</svg>