<?xml version="1.0" encoding="UTF-8"?>
<svg width="108px" height="150px" viewBox="0 0 108 150" version="1.1" xmlns="http://www.w3.org/2000/svg" xmlns:xlink="http://www.w3.org/1999/xlink">
    <!-- Generator: Sketch 48.2 (47327) - http://www.bohemiancoding.com/sketch -->
    <title>Group 2</title>
    <desc>Created with Sketch.</desc>
    <defs></defs>
    <g id="Page-1" stroke="none" stroke-width="1" fill="none" fill-rule="evenodd">
        <g id="Group" transform="translate(-64.000000, -49.000000)">
            <g id="Group-2" transform="translate(64.000000, 49.000000)">
                <text id="DataBase" font-family="Roboto-Regular, Roboto" font-size="25" font-weight="normal" fill="#FFFFFF">
                    <tspan x="1" y="149">DataBase</tspan>
                </text>
                <g id="database" fill="#FFFFFF" fill-rule="nonzero">
                    <path d="M54,0 C24.165,0 0,12.1322222 0,27.1111111 C0,42.09 24.165,54.2222222 54,54.2222222 C83.835,54.2222222 108,42.09 108,27.1111111 C108,12.1322222 83.835,0 54,0 Z M0,40.6666667 L0,61 C0,75.9788889 24.165,88.1111111 54,88.1111111 C83.835,88.1111111 108,75.9788889 108,61 L108,40.6666667 C108,55.6455556 83.835,67.7777778 54,67.7777778 C24.165,67.7777778 0,55.6455556 0,40.6666667 Z M0,74.5555556 L0,94.8888889 C0,109.867778 24.165,122 54,122 C83.835,122 108,109.867778 108,94.8888889 L108,74.5555556 C108,89.5344444 83.835,101.666667 54,101.666667 C24.165,101.666667 0,89.5344444 0,74.5555556 Z" id="Shape"></path>
                </g>
                <path d="M74.6363636,15.25 L64.2727273,25.5 L72.0454545,25.5 C72.0454545,33.981875 65.0759091,40.875 56.5,40.875 C53.8831818,40.875 51.3959091,40.234375 49.2454545,39.08125 L45.4627273,42.8225 C48.6495455,44.82125 52.4322727,46 56.5,46 C67.9518182,46 77.2272727,36.82625 77.2272727,25.5 L85,25.5 L74.6363636,15.25 Z M40.9545455,25.5 C40.9545455,17.018125 47.9240909,10.125 56.5,10.125 C59.1168182,10.125 61.6040909,10.765625 63.7545455,11.91875 L67.5372727,8.1775 C64.3504545,6.17875 60.5677273,5 56.5,5 C45.0481818,5 35.7727273,14.17375 35.7727273,25.5 L28,25.5 L38.3636364,35.75 L48.7272727,25.5 L40.9545455,25.5 Z" id="Shape" fill="#016CAE" fill-rule="nonzero"></path>
            </g>
        </g>
    </g>
</svg>